PathFileType	4	(X/Y/Z)	T00_Trial_0-100.trc
DataRate	CameraRate	NumFrames	NumMarkers	Units	OrigDataRate	OrigDataStartFrame	OrigNumFrames
60	60	5	22	m	60	62	100
Frame#	Time	Hip			RHip			RKnee			RAnkle			RBigToe			RSmallToe			RHeel			LHip			LKnee			LAnkle			LBigToe			LSmallToe			LHeel			Neck			Head			Nose			RShoulder			RElbow			RWrist			LShoulder			LElbow			LWrist		
		X1	Y1	Z1	X2	Y2	Z2	X3	Y3	Z3	X4	Y4	Z4	X5	Y5	Z5	X6	Y6	Z6	X7	Y7	Z7	X8	Y8	Z8	X9	Y9	Z9	X10	Y10	Z10	X11	Y11	Z11	X12	Y12	Z12	X13	Y13	Z13	X14	Y14	Z14	X15	Y15	Z15	X16	Y16	Z16	X17	Y17	Z17	X18	Y18	Z18	X19	Y19	Z19	X20	Y20	Z20	X21	Y21	Z21	X22	Y22	Z22
62	1.0333333333333334	-0.1270307882370654	0.9617220309006395	-0.991010296463657	-0.2335103254432173	0.9970175168053046	-0.9990091183258193	-0.37359552344192576	0.6661269617491619	-0.7829405401183883	-0.5465447765880832	0.3550623135800275	-0.8964563659682726	-0.39432748940535844	0.20623593783168792	-0.6540451657842401	-0.4823852043250206	0.2304681947169152	-0.6410121996655059	-0.4347648052518289	0.22380526520402927	-0.8594154903909806	-0.04326939390576096	0.9105050284874046	-0.9842574171861735	-0.06254302789293714	0.504569306696523	-0.9846174757711738	-0.01944330683444623	0.15297627478572864	-1.1540027105088448	-0.022694809342014965	0.08435380968134766	-0.9839308800436881	0.02004793623649634	0.07854070302115498	-1.0281416327290736	-0.01716104862575062	0.1000949170756014	-1.2111959707313538	0.2135559092127848	1.338512158058233	-0.8917587920058782	0.3507391214617202	1.4959529649686836	-0.7888111158384901	0.2714147757799504	1.3401733310574164	-0.738555114334048	0.037074059469905635	1.4317048345808652	-0.9213476762429721	-0.2166067240597541	1.4802600007739277	-0.8903589227271261	-0.10451537967414636	1.5929279928900393	-0.673266470980656	0.31192431315754254	1.1875643733932748	-0.9877094229876543	0.3772855082260348	0.9218699595476514	-1.0362033675556401	0.41617685371124535	0.6691417894913441	-0.9531201559243967
63	1.05	-0.12736267813492874	0.9657131850956171	-0.9866418941580736	-0.2328846379676351	0.9982025557709004	-0.9886673438656991	-0.3486316843184146	0.6554190976125637	-0.7877634301213882	-0.5011879164852785	0.32768639231825103	-0.8910956396434524	-0.3493085216520706	0.19752273513861798	-0.6249380360790073	-0.3995880909798372	0.1928640019195159	-0.6539991454740893	-0.5091179765833509	0.2831790977280827	-0.9163289942530923	-0.04030513205182359	0.9121741217269815	-0.986545754284212	-0.06141236124039655	0.5073519559181677	-0.9815524854600429	-0.022448365342765703	0.15536996632602418	-1.1541479885489374	-0.01883812608073784	0.0937166405729623	-0.9851342631045948	0.02184696209548686	0.08762187978127861	-1.039628861422541	-0.020654825955058388	0.10202286665114439	-1.206857188199643	0.21013567950137932	1.3425281271220681	-0.8799678907975763	0.34372462153532923	1.484178103654445	-0.6638939385500348	0.2739846894697987	1.3378867145188509	-0.7269687143968876	0.03160001862234913	1.4355215506009391	-0.9118051035484279	-0.23339399209336412	1.4768400489782418	-0.8780531689996668	-0.12804962643380308	1.5751805417836382	-0.6566199417983257	0.3043570176155682	1.196957525307015	-0.9858810365213148	0.37341113808400817	0.9395671947286169	-0.9993770805747585	0.4170830897808527	0.6740276737818756	-0.942322712552673
64	1.0666666666666667	-0.12397050809001564	0.9604847480922262	-0.9773766855791236	-0.2335874514155247	0.9929327287615056	-0.9824433688760765	-0.3265480029094873	0.6423750781173942	-0.7828285705623913	-0.37589161821996697	0.25153405128156686	-0.7456777402652714	-0.33373836846296123	0.19673418874549176	-0.5882359352590134	-0.38946926127060477	0.19946225131195405	-0.6031974615949407	-0.3832428396219967	0.20113346197765825	-0.7816368132260239	-0.035708941098673286	0.9124188169708145	-0.9726961204225786	-0.059969211510562	0.5123691294685615	-0.9748582603379127	-0.023542233076412303	0.1595623629401382	-1.1514520795041667	-0.02326422254676015	0.09079771717550209	-0.9827158017804597	0.02295427977915899	0.0833679926061491	-1.0360104436959334	-0.020343739453551127	0.10723920489343322	-1.2013326572291376	0.2018683460514813	1.3463400456296595	-0.8691649477542631	0.35431152511165315	1.5067193249353774	-0.6745778422512895	0.26891057361937337	1.3399302507645219	-0.7227938271336831	0.023532256517435693	1.4362238036482038	-0.9028427581396484	-0.24118428003165215	1.4706439716193158	-0.8648650358001134	-0.1290954858731021	1.570851262278756	-0.6583421435021407	0.3053311827752765	1.2095663005194244	-0.94760896772197	0.37487820820331746	0.9482588326632269	-0.9885770161736401	0.4158730669518188	0.6832058211310955	-0.940520175378564
65	1.0833333333333333	-0.11803846172122552	0.9609511706797738	-0.9686627607898203	-0.22903743405667468	0.9843406592203341	-0.9764049413387716	-0.3037576401199509	0.6343346565479474	-0.7766824710054204	-0.33912544481553114	0.24417974946158777	-0.7281082908788225	-0.2929949876857566	0.18114030907754328	-0.5724840901571583	-0.34804560123976175	0.18421350192309338	-0.5912507133060233	-0.34362152236132715	0.18943671534883005	-0.7581863259757765	-0.03388220833606466	0.9131887474188339	-0.9571830568099833	-0.056107364937363256	0.4986252164462791	-0.9775460581229247	-0.021286937600987675	0.15106392867829135	-1.1493613523312807	-0.019851274990655872	0.08339777710708489	-0.9928099829405069	0.02534351534649211	0.07916984855780941	-1.0428579026871785	-0.024174825309922553	0.09669294258610114	-1.199025149697687	0.1914096651153049	1.3501243699130692	-0.8693627916721097	0.3300711508206136	1.4897187037233417	-0.6514532057972083	0.2484560772304469	1.333343454566289	-0.7110128912004917	0.018102812685817163	1.4398238994107386	-0.8949209396403978	-0.2537249309631705	1.464471306607663	-0.8469004054373653	-0.12984143975504217	1.5682293691542828	-0.6214180422010276	0.3032935302285991	1.2201864176738548	-0.9399947494146282	0.3736881997277189	0.9585917387650448	-0.9812610790301914	0.4148001401956912	0.7030239149265922	-0.908648156555491
66	1.1	-0.11959240598833196	0.9558507960133176	-0.9694373502540404	-0.22774710132986473	0.9836421876343212	-0.9715050775972475	-0.2806998555502031	0.6213194974412173	-0.7754738531339178	-0.3028780941864381	0.23378338368378668	-0.7200609112345028	-0.24680617733767107	0.16916445707321562	-0.5635449927815018	-0.3018839600407761	0.1740407247301471	-0.5814977190804577	-0.3076659443898554	0.17819933097664542	-0.7504273008000453	-0.035288049927422994	0.9145810405563809	-0.9628336724267553	-0.046639250904734204	0.5145137720269448	-0.939023262587511	-0.021747386384191818	0.14924675682495997	-1.1447241650933346	-0.00028665850420921455	0.06843753928337003	-0.9957801490929579	0.02516685381442601	0.07749692631863654	-1.0450624181034909	-0.023263019203817337	0.09788769499865652	-1.1981382910998666	0.19200203273752434	1.355727290735203	-0.8567490316427314	0.3392436456688224	1.5248422071057444	-0.648232203118606	0.25964569013066496	1.3418829045522795	-0.7045726222943719	0.00571555320591126	1.4400557327511458	-0.8896466095799063	-0.26253564589591694	1.459312011274792	-0.8467462764219851	-0.15364692662461477	1.5545490805666478	-0.6402157280842229	0.29927937038514546	1.2245582808721744	-0.9304622771050153	0.37208260088552503	0.9526310465792133	-0.9851030662881098	0.4150684204369759	0.692356969503439	-0.9202795430809491
